<svg xmlns="http://www.w3.org/2000/svg" xmlns:xlink="http://www.w3.org/1999/xlink" xmlns:svgjs="http://svgjs.dev/svgjs" version="1.1" width="1000" height="623" viewBox="0 0 1000 623"><g transform="matrix(1,0,0,1,-0.6060606060606233,0.2522267206477409)"><svg xmlns="http://www.w3.org/2000/svg" xmlns:xlink="http://www.w3.org/1999/xlink" viewBox="0 0 396 247" data-background-color="#50a060" preserveAspectRatio="xMidYMid meet" height="623" width="1000"><g id="tight-bounds" transform="matrix(1,0,0,1,0.2400000000000091,-0.09999999999999432)"><svg viewBox="0 0 395.52 247.2" height="247.2" width="395.52"><g><svg/></g><g><svg viewBox="0 0 395.52 247.2" height="247.2" width="395.52"><mask id="0544561a-b46d-4424-87df-5a2a48ef5f26"><rect width="640" height="400" fill="white"/><g transform="matrix(1,0,0,1,150.0015306224396,37.08)"><svg viewBox="0 0 95.51693875512082 173.04" height="173.04" width="95.51693875512082"><g><svg viewBox="0 0 95.51693875512082 173.04" height="173.04" width="95.51693875512082"><g><svg viewBox="0 0 119.53816202593855 216.5572287654524" height="173.04" width="95.51693875512082"><g><svg viewBox="0 0 119.53816202593855 216.5572287654524" height="216.5572287654524" width="119.53816202593855"><g id="SvgjsG1241"><svg viewBox="0 0 119.53816202593855 216.5572287654524" height="216.5572287654524" width="119.53816202593855" id="SvgjsSvg1240"><g><svg viewBox="0 0 119.53816202593855 171.9706128" height="171.9706128" width="119.53816202593855"><g transform="matrix(1,0,0,1,0,0)"><svg width="119.53816202593855" viewBox="-4.15 -40.9 31.549999999999997 44.949999999999996" height="171.9706128" data-palette-color="#096a2e"><path d="M8.5-1.65L-0.15 0.05Q1.35-6.7 2.7-13.15L2.7-13.15Q3.25-15.85 3.85-18.85 4.45-21.85 5-24.75 5.55-27.65 6.05-30.35 6.55-33.05 6.9-35.3L6.9-35.3Q8.35-35.75 9.75-36.08 11.15-36.4 12.63-36.65 14.1-36.9 15.4-36.9L15.4-36.9Q17.65-36.9 19.18-36.15 20.7-35.4 21.65-34.13 22.6-32.85 23-31.15 23.4-29.45 23.4-27.5L23.4-27.5Q23.4-24.7 22.38-22.1 21.35-19.5 19.63-17.48 17.9-15.45 15.68-14.25 13.45-13.05 11.05-13.05L11.05-13.05 10.5-13.05Q10.1-11.35 9.75-9.35 9.4-7.35 9.15-5.65L9.15-5.65Q8.8-3.65 8.5-1.65L8.5-1.65ZM13.8-30.85Q13.25-27.55 12.7-24.6 12.15-21.65 11.5-18.3L11.5-18.3Q12.3-18.5 13.18-19.23 14.05-19.95 14.8-21.13 15.55-22.3 16-23.85 16.45-25.4 16.45-27.1L16.45-27.1Q16.45-28.95 15.63-29.9 14.8-30.85 13.8-30.85L13.8-30.85Z" opacity="1" transform="matrix(1,0,0,1,0,0)" fill="black" class="wordmark-text-0" id="SvgjsPath1239" stroke-width="7" stroke="black" stroke-linejoin="round"/></svg></g></svg></g><g transform="matrix(1,0,0,1,3.5,206.10260519165928)"><svg viewBox="0 0 112.53816202593855 10.454623573793132" height="10.454623573793132" width="112.53816202593855"><g transform="matrix(1,0,0,1,0,0)"><svg width="112.53816202593855" viewBox="-1.4500000000000002 -40.5 476.25 45.15" height="10.454623573793132" data-palette-color="#096a2e"><path d="M13.75 0.65Q8.2 0.65 5.38-1.43 2.55-3.5 2.55-6.75L2.55-6.75Q2.55-9.65 5.35-9.65L5.35-9.65Q5.9-9.65 6.25-9.6L6.25-9.6Q6-8.85 6.1-7.5L6.1-7.5Q6.25-4.6 8.38-2.9 10.5-1.2 14.15-1.2L14.15-1.2Q17.45-1.2 19.43-2.75 21.4-4.3 21.4-7.3L21.4-7.3Q21.4-9.25 20.53-10.65 19.65-12.05 18.03-13.25 16.4-14.45 13.4-16.1L13.4-16.1Q10-18 8.05-19.43 6.1-20.85 4.95-22.7 3.8-24.55 3.8-27.1L3.8-27.1Q3.8-31.2 6.8-33.25 9.8-35.3 14.4-35.3L14.4-35.3Q18.9-35.3 21.63-33.65 24.35-32 24.35-29.1L24.35-29.1Q24.35-27 22.35-26.8L22.35-26.8Q21.95-26.7 21.7-26.7L21.7-26.7Q21.4-26.7 20.8-26.8L20.8-26.8Q20.95-27.35 20.95-27.8L20.95-27.8Q20.95-28.4 20.8-28.9L20.8-28.9Q20.6-31.05 18.75-32.25 16.9-33.45 14-33.45L14-33.45Q11.35-33.45 9.47-32.25 7.6-31.05 7.6-28.35L7.6-28.35Q7.6-26.45 8.55-25.03 9.5-23.6 11.1-22.5 12.7-21.4 15.65-19.75L15.65-19.75Q18.8-18.05 20.85-16.55 22.9-15.05 24.15-13.05 25.4-11.05 25.4-8.4L25.4-8.4Q25.4-6 24.23-3.95 23.05-1.9 20.45-0.63 17.85 0.65 13.75 0.65L13.75 0.65ZM54.2-3.35Q54.8-2.55 54.8-1.8L54.8-1.8Q54.8-0.75 54-0.13 53.2 0.5 51.8 0.5L51.8 0.5Q47.9 0.5 47.9-4.6L47.9-4.6 47.9-5.6Q46.85-2.65 44.65-1 42.45 0.65 39.5 0.65L39.5 0.65Q35.4 0.65 33.55-1.75 31.7-4.15 31.65-9.85L31.65-9.85 31.65-19.75Q31.65-23.2 31-25.15L31-25.15Q32.1-26.05 33.35-26.05L33.35-26.05Q34.35-26.05 34.98-25.45 35.6-24.85 35.6-23.8L35.6-23.8 35.65-10.35Q35.65-7.1 36.13-5.2 36.6-3.3 37.68-2.43 38.75-1.55 40.65-1.55L40.65-1.55Q42.35-1.55 43.93-2.78 45.5-4 46.53-6.68 47.55-9.35 47.55-13.45L47.55-13.45Q47.55-19.9 47.45-21.85 47.35-23.8 46.85-25.15L46.85-25.15Q47.9-26.05 49.15-26.05L49.15-26.05Q50.15-26.05 50.8-25.4 51.45-24.75 51.45-23.65L51.45-23.65 51.5-5.15Q51.5-3.75 51.83-3.18 52.15-2.6 52.9-2.6L52.9-2.6Q53.8-2.6 54.2-3.35L54.2-3.35ZM80.9-5.7Q81-1.9 81.55-0.35L81.55-0.35Q80.55 0.55 79.25 0.55L79.25 0.55Q78.2 0.55 77.55-0.05 76.9-0.65 76.9-1.65L76.9-1.65 76.9-15.15Q76.85-19.5 75.68-21.6 74.5-23.7 71.7-23.7L71.7-23.7Q69.95-23.7 68.33-22.5 66.7-21.3 65.65-18.7 64.6-16.1 64.6-12.05L64.6-12.05Q64.6-5.6 64.7-3.65 64.8-1.7 65.3-0.35L65.3-0.35Q64.25 0.55 63 0.55L63 0.55Q61.95 0.55 61.3-0.1 60.65-0.75 60.65-1.85L60.65-1.85 60.65-20.3Q60.6-21.7 60.28-22.3 59.95-22.9 59.25-22.9L59.25-22.9Q58.3-22.9 57.95-22.1L57.95-22.1Q57.35-22.95 57.35-23.7L57.35-23.7Q57.35-24.75 58.15-25.38 58.95-26 60.35-26L60.35-26Q62.25-26 63.25-24.7 64.25-23.4 64.25-20.85L64.25-20.85 64.25-19.85Q65.3-22.8 67.55-24.43 69.8-26.05 72.85-26.05L72.85-26.05Q80.9-26.05 80.9-15.65L80.9-15.65 80.9-5.7ZM95.95 0.65Q91.3 0.65 88.97-1.03 86.65-2.7 86.65-5.4L86.65-5.4Q86.65-6.65 87.25-7.43 87.85-8.2 89.15-8.2L89.15-8.2Q89.65-8.2 89.95-8.15L89.95-8.15Q89.8-7.55 89.8-6.95L89.8-6.95Q89.8-6.4 89.85-6.05L89.85-6.05Q89.95-3.85 91.67-2.55 93.4-1.25 96.3-1.25L96.3-1.25Q99.15-1.25 100.85-2.25 102.55-3.25 102.55-5.2L102.55-5.2Q102.55-7 101.25-8.05 99.95-9.1 97.15-10.35L97.15-10.35 95.55-11.1Q92.75-12.4 91.28-13.3 89.8-14.2 88.72-15.75 87.65-17.3 87.65-19.65L87.65-19.65Q87.65-22.9 90.2-24.5 92.75-26.1 96.65-26.1L96.65-26.1Q100.75-26.1 103.05-24.78 105.35-23.45 105.35-21.1L105.35-21.1Q105.35-19 103.5-18.8L103.5-18.8Q103-18.7 102.85-18.7L102.85-18.7Q102.55-18.7 102.05-18.8L102.05-18.8Q102.15-19.4 102.15-19.8L102.15-19.8Q102.15-20.45 102-20.9L102-20.9Q101.8-22.55 100.38-23.4 98.95-24.25 96.5-24.25L96.5-24.25Q94.25-24.25 92.8-23.43 91.35-22.6 91.35-20.8L91.35-20.8Q91.35-19.3 92.2-18.23 93.05-17.15 94.22-16.48 95.4-15.8 97.8-14.65L97.8-14.65 98.9-14.15Q101.35-13 102.83-12.13 104.3-11.25 105.33-9.85 106.35-8.45 106.35-6.5L106.35-6.5Q106.35-3.55 103.9-1.45 101.45 0.65 95.95 0.65L95.95 0.65ZM130.5-6.45Q131.25-6.2 131.25-5.3L131.25-5.3Q131.25-4.8 130.95-3.95L130.95-3.95Q130-1.75 127.63-0.55 125.25 0.65 122.05 0.65L122.05 0.65Q116.55 0.65 113.45-2.78 110.35-6.2 110.35-12.55L110.35-12.55Q110.35-18.85 113.43-22.45 116.5-26.05 122.25-26.05L122.25-26.05Q126.4-26.05 128.9-24.18 131.4-22.3 131.4-18.85L131.4-18.85Q131.4-15.15 128.4-13.2 125.4-11.25 120.05-11.25L120.05-11.25Q117.1-11.25 114.65-11.6L114.65-11.6Q114.95-6.55 117.18-4.33 119.4-2.1 123-2.1L123-2.1Q125.75-2.1 127.75-3.23 129.75-4.35 130.5-6.45L130.5-6.45ZM122.1-24.25Q118.7-24.25 116.68-21.43 114.65-18.6 114.6-13.3L114.6-13.3Q117-13.1 118.5-13.05L118.5-13.05Q122.5-13.05 124.83-14.48 127.15-15.9 127.15-19.35L127.15-19.35Q127.15-22 125.7-23.13 124.25-24.25 122.1-24.25L122.1-24.25ZM144.5-25.35Q145.3-25.35 146.63-25.4 147.95-25.45 148.75-25.5L148.75-25.5 148.7-24.4Q148.65-23.9 148.35-23.58 148.05-23.25 147.6-23.25L147.6-23.25 142.45-23.25 142.45-21.35 142.45-5.25Q142.45-3.95 143.05-3.25 143.65-2.55 144.85-2.55L144.85-2.55Q145.6-2.55 146.28-2.83 146.95-3.1 147.2-3.6L147.2-3.6Q147.75-2.85 147.75-2L147.75-2Q147.75-0.85 146.55-0.15 145.35 0.55 143.5 0.55L143.5 0.55Q141.15 0.55 139.8-0.93 138.45-2.4 138.45-5L138.45-5 138.45-23.25 137.75-23.25Q135.7-23.25 134.75-23.1L134.75-23.1 134.8-24.25Q134.85-25.35 135.9-25.35L135.9-25.35 138.45-25.35 138.45-29.8Q138.45-30.85 139.1-31.43 139.75-32 140.8-32L140.8-32Q142.05-32 143.1-31.1L143.1-31.1Q142.55-29.4 142.5-25.35L142.5-25.35 144.5-25.35ZM161.85 0.65Q157.2 0.65 154.88-1.03 152.55-2.7 152.55-5.4L152.55-5.4Q152.55-6.65 153.15-7.43 153.75-8.2 155.05-8.2L155.05-8.2Q155.55-8.2 155.85-8.15L155.85-8.15Q155.7-7.55 155.7-6.95L155.7-6.95Q155.7-6.4 155.75-6.05L155.75-6.05Q155.85-3.85 157.58-2.55 159.3-1.25 162.2-1.25L162.2-1.25Q165.05-1.25 166.75-2.25 168.45-3.25 168.45-5.2L168.45-5.2Q168.45-7 167.15-8.05 165.85-9.1 163.05-10.35L163.05-10.35 161.45-11.1Q158.65-12.4 157.18-13.3 155.7-14.2 154.63-15.75 153.55-17.3 153.55-19.65L153.55-19.65Q153.55-22.9 156.1-24.5 158.65-26.1 162.55-26.1L162.55-26.1Q166.65-26.1 168.95-24.78 171.25-23.45 171.25-21.1L171.25-21.1Q171.25-19 169.4-18.8L169.4-18.8Q168.9-18.7 168.75-18.7L168.75-18.7Q168.45-18.7 167.95-18.8L167.95-18.8Q168.05-19.4 168.05-19.8L168.05-19.8Q168.05-20.45 167.9-20.9L167.9-20.9Q167.7-22.55 166.28-23.4 164.85-24.25 162.4-24.25L162.4-24.25Q160.15-24.25 158.7-23.43 157.25-22.6 157.25-20.8L157.25-20.8Q157.25-19.3 158.1-18.23 158.95-17.15 160.13-16.48 161.3-15.8 163.7-14.65L163.7-14.65 164.8-14.15Q167.25-13 168.72-12.13 170.2-11.25 171.23-9.85 172.25-8.45 172.25-6.5L172.25-6.5Q172.25-3.55 169.8-1.45 167.35 0.65 161.85 0.65L161.85 0.65ZM211.45-3.65Q212-2.9 212-2.1L212-2.1Q212-1 210.97-0.25 209.95 0.5 208.5 0.5L208.5 0.5Q206.35 0.5 205.25-1 204.15-2.5 204.15-5.7L204.15-5.7 204.15-7.15Q202.5-3.6 199.68-1.53 196.85 0.55 193.5 0.55L193.5 0.55Q190.6 0.55 188.93-1.03 187.25-2.6 187.25-5.25L187.25-5.25Q187.25-8.2 189.5-10.25 191.75-12.3 195.55-13.35L195.55-13.35Q198.9-14.25 202.5-14.25L202.5-14.25Q203.5-14.25 203.95-14.2L203.95-14.2 203.95-15.5Q203.95-19.95 202.47-22.1 201-24.25 197.6-24.25L197.6-24.25Q195.4-24.25 193.9-23.3 192.4-22.35 192.4-20.2L192.4-20.2Q192.4-19.05 192.93-18.05 193.45-17.05 194.55-16.65L194.55-16.65Q193.75-15.65 192.15-15.65L192.15-15.65Q190.5-15.65 189.45-16.98 188.4-18.3 188.4-20.05L188.4-20.05Q188.4-22.95 190.95-24.5 193.5-26.05 197.95-26.05L197.95-26.05Q203.1-26.05 205.55-23.4 208-20.75 208-15.25L208-15.25 208-5.25Q208-2.6 209.8-2.6L209.8-2.6Q210.2-2.6 210.7-2.88 211.2-3.15 211.45-3.65L211.45-3.65ZM195.1-2.25Q197.1-2.25 199.18-3.73 201.25-5.2 202.63-7.6 204-10 204.05-12.6L204.05-12.6 202.9-12.65Q201.15-12.65 199.35-12.38 197.55-12.1 196.3-11.6L196.3-11.6Q194.1-10.8 192.85-9.4 191.6-8 191.6-6.1L191.6-6.1Q191.6-4.45 192.45-3.35 193.3-2.25 195.1-2.25L195.1-2.25ZM237.35-5.7Q237.45-1.9 238-0.35L238-0.35Q237 0.55 235.7 0.55L235.7 0.55Q234.65 0.55 234-0.05 233.35-0.65 233.35-1.65L233.35-1.65 233.35-15.15Q233.3-19.5 232.13-21.6 230.95-23.7 228.15-23.7L228.15-23.7Q226.4-23.7 224.78-22.5 223.15-21.3 222.1-18.7 221.05-16.1 221.05-12.05L221.05-12.05Q221.05-5.6 221.15-3.65 221.25-1.7 221.75-0.35L221.75-0.35Q220.7 0.55 219.45 0.55L219.45 0.55Q218.4 0.55 217.75-0.1 217.1-0.75 217.1-1.85L217.1-1.85 217.1-20.3Q217.05-21.7 216.72-22.3 216.4-22.9 215.7-22.9L215.7-22.9Q214.75-22.9 214.4-22.1L214.4-22.1Q213.8-22.95 213.8-23.7L213.8-23.7Q213.8-24.75 214.6-25.38 215.4-26 216.8-26L216.8-26Q218.7-26 219.7-24.7 220.7-23.4 220.7-20.85L220.7-20.85 220.7-19.85Q221.75-22.8 224-24.43 226.25-26.05 229.3-26.05L229.3-26.05Q237.35-26.05 237.35-15.65L237.35-15.65 237.35-5.7ZM267.6-3.45Q268.15-2.7 268.15-1.85L268.15-1.85Q268.15-0.85 267.27-0.23 266.4 0.4 265.05 0.4L265.05 0.4Q260.95 0.4 260.95-6L260.95-6 260.95-6.35Q259.75-3.05 257.52-1.2 255.3 0.65 252 0.65L252 0.65Q247.2 0.65 245.3-2.9 243.4-6.45 243.4-11.5L243.4-11.5Q243.4-18.4 246.13-22.23 248.85-26.05 253.9-26.05L253.9-26.05Q256.45-26.05 258.22-25.03 260-24 260.8-22.05L260.8-22.05 260.75-28.75Q260.75-33.35 260.1-35.6L260.1-35.6Q261-36.5 262.4-36.5L262.4-36.5Q263.45-36.5 264.1-35.93 264.75-35.35 264.75-34.3L264.75-34.3 264.7-5.25Q264.7-2.7 266.25-2.7L266.25-2.7Q267.2-2.7 267.6-3.45L267.6-3.45ZM253-1.8Q255.4-1.8 257.15-3.6 258.9-5.4 259.8-8.45 260.7-11.5 260.7-15.2L260.7-15.2Q260.7-23.7 254.55-23.7L254.55-23.7Q251.2-23.7 249.42-20.65 247.65-17.6 247.65-11.65L247.65-11.65Q247.65-7.2 248.77-4.5 249.9-1.8 253-1.8L253-1.8ZM294.2 0.65Q288.65 0.65 285.82-1.43 283-3.5 283-6.75L283-6.75Q283-9.65 285.8-9.65L285.8-9.65Q286.35-9.65 286.7-9.6L286.7-9.6Q286.45-8.85 286.55-7.5L286.55-7.5Q286.7-4.6 288.82-2.9 290.95-1.2 294.6-1.2L294.6-1.2Q297.9-1.2 299.88-2.75 301.85-4.3 301.85-7.3L301.85-7.3Q301.85-9.25 300.97-10.65 300.1-12.05 298.47-13.25 296.85-14.45 293.85-16.1L293.85-16.1Q290.45-18 288.5-19.43 286.55-20.85 285.4-22.7 284.25-24.55 284.25-27.1L284.25-27.1Q284.25-31.2 287.25-33.25 290.25-35.3 294.85-35.3L294.85-35.3Q299.35-35.3 302.07-33.65 304.8-32 304.8-29.1L304.8-29.1Q304.8-27 302.8-26.8L302.8-26.8Q302.4-26.7 302.15-26.7L302.15-26.7Q301.85-26.7 301.25-26.8L301.25-26.8Q301.4-27.35 301.4-27.8L301.4-27.8Q301.4-28.4 301.25-28.9L301.25-28.9Q301.05-31.05 299.2-32.25 297.35-33.45 294.45-33.45L294.45-33.45Q291.8-33.45 289.93-32.25 288.05-31.05 288.05-28.35L288.05-28.35Q288.05-26.45 289-25.03 289.95-23.6 291.55-22.5 293.15-21.4 296.1-19.75L296.1-19.75Q299.25-18.05 301.3-16.55 303.35-15.05 304.6-13.05 305.85-11.05 305.85-8.4L305.85-8.4Q305.85-6 304.68-3.95 303.5-1.9 300.9-0.63 298.3 0.65 294.2 0.65L294.2 0.65ZM334.65-3.35Q335.25-2.55 335.25-1.8L335.25-1.8Q335.25-0.75 334.45-0.13 333.65 0.5 332.25 0.5L332.25 0.5Q328.35 0.5 328.35-4.6L328.35-4.6 328.35-5.6Q327.3-2.65 325.1-1 322.9 0.65 319.95 0.65L319.95 0.65Q315.85 0.65 314-1.75 312.15-4.15 312.1-9.85L312.1-9.85 312.1-19.75Q312.1-23.2 311.45-25.15L311.45-25.15Q312.55-26.05 313.8-26.05L313.8-26.05Q314.8-26.05 315.43-25.45 316.05-24.85 316.05-23.8L316.05-23.8 316.1-10.35Q316.1-7.1 316.57-5.2 317.05-3.3 318.13-2.43 319.2-1.55 321.1-1.55L321.1-1.55Q322.8-1.55 324.38-2.78 325.95-4 326.97-6.68 328-9.35 328-13.45L328-13.45Q328-19.9 327.9-21.85 327.8-23.8 327.3-25.15L327.3-25.15Q328.35-26.05 329.6-26.05L329.6-26.05Q330.6-26.05 331.25-25.4 331.9-24.75 331.9-23.65L331.9-23.65 331.95-5.15Q331.95-3.75 332.27-3.18 332.6-2.6 333.35-2.6L333.35-2.6Q334.25-2.6 334.65-3.35L334.65-3.35ZM361.35-5.7Q361.45-1.9 362-0.35L362-0.35Q361 0.55 359.7 0.55L359.7 0.55Q358.65 0.55 358-0.05 357.35-0.65 357.35-1.65L357.35-1.65 357.35-15.15Q357.3-19.5 356.13-21.6 354.95-23.7 352.15-23.7L352.15-23.7Q350.4-23.7 348.77-22.5 347.15-21.3 346.1-18.7 345.05-16.1 345.05-12.05L345.05-12.05Q345.05-5.6 345.15-3.65 345.25-1.7 345.75-0.35L345.75-0.35Q344.7 0.55 343.45 0.55L343.45 0.55Q342.4 0.55 341.75-0.1 341.1-0.75 341.1-1.85L341.1-1.85 341.1-20.3Q341.05-21.7 340.73-22.3 340.4-22.9 339.7-22.9L339.7-22.9Q338.75-22.9 338.4-22.1L338.4-22.1Q337.8-22.95 337.8-23.7L337.8-23.7Q337.8-24.75 338.6-25.38 339.4-26 340.8-26L340.8-26Q342.7-26 343.7-24.7 344.7-23.4 344.7-20.85L344.7-20.85 344.7-19.85Q345.75-22.8 348-24.43 350.25-26.05 353.3-26.05L353.3-26.05Q361.35-26.05 361.35-15.65L361.35-15.65 361.35-5.7ZM380-26.05Q382.6-26.05 384.18-24.68 385.75-23.3 385.75-20.85L385.75-20.85Q385.75-19.2 384.8-18.13 383.85-17.05 382.55-17.05L382.55-17.05Q381.45-17.05 381.05-17.55L381.05-17.55Q381.6-18.4 381.8-19.13 382-19.85 382-20.75L382-20.75Q382-23.85 379.1-23.85L379.1-23.85Q376.85-23.85 375.32-20.98 373.8-18.1 373.8-12.05L373.8-12.05 373.8-9.35Q373.8-4.85 373.9-3.25 374-1.65 374.45-0.45L374.45-0.45Q373.4 0.45 372.1 0.45L372.1 0.45Q371.1 0.45 370.45-0.18 369.8-0.8 369.8-1.9L369.8-1.9 369.8-20.3Q369.8-21.7 369.47-22.3 369.15-22.9 368.4-22.9L368.4-22.9Q367.45-22.9 367.1-22.1L367.1-22.1Q366.5-22.95 366.5-23.7L366.5-23.7Q366.5-24.75 367.3-25.38 368.1-26 369.5-26L369.5-26Q371.45-26 372.43-24.63 373.4-23.25 373.35-20.55L373.35-20.55 373.35-20.3Q374.2-23.15 375.9-24.6 377.6-26.05 380-26.05L380-26.05ZM393.6-30Q392.5-30 391.7-30.8 390.9-31.6 390.9-32.7L390.9-32.7Q390.9-33.85 391.7-34.63 392.5-35.4 393.6-35.4L393.6-35.4Q394.75-35.4 395.52-34.63 396.3-33.85 396.3-32.7L396.3-32.7Q396.3-31.6 395.52-30.8 394.75-30 393.6-30L393.6-30ZM395.8-5.7Q395.8-2.05 396.45-0.35L396.45-0.35Q395.4 0.55 394.15 0.55L394.15 0.55Q393.15 0.55 392.52-0.05 391.9-0.65 391.9-1.65L391.9-1.65 391.85-19.8Q391.85-23.25 391.2-25.15L391.2-25.15Q392.25-26.05 393.5-26.05L393.5-26.05Q394.5-26.05 395.13-25.48 395.75-24.9 395.75-23.85L395.75-23.85 395.8-5.7ZM411.45 0.65Q406.8 0.65 404.48-1.03 402.15-2.7 402.15-5.4L402.15-5.4Q402.15-6.65 402.75-7.43 403.35-8.2 404.65-8.2L404.65-8.2Q405.15-8.2 405.45-8.15L405.45-8.15Q405.3-7.55 405.3-6.95L405.3-6.95Q405.3-6.4 405.35-6.05L405.35-6.05Q405.45-3.85 407.18-2.55 408.9-1.25 411.8-1.25L411.8-1.25Q414.65-1.25 416.35-2.25 418.05-3.25 418.05-5.2L418.05-5.2Q418.05-7 416.75-8.05 415.45-9.1 412.65-10.35L412.65-10.35 411.05-11.1Q408.25-12.4 406.77-13.3 405.3-14.2 404.23-15.75 403.15-17.3 403.15-19.65L403.15-19.65Q403.15-22.9 405.7-24.5 408.25-26.1 412.15-26.1L412.15-26.1Q416.25-26.1 418.55-24.78 420.85-23.45 420.85-21.1L420.85-21.1Q420.85-19 419-18.8L419-18.8Q418.5-18.7 418.35-18.7L418.35-18.7Q418.05-18.7 417.55-18.8L417.55-18.8Q417.65-19.4 417.65-19.8L417.65-19.8Q417.65-20.45 417.5-20.9L417.5-20.9Q417.3-22.55 415.88-23.4 414.45-24.25 412-24.25L412-24.25Q409.75-24.25 408.3-23.43 406.85-22.6 406.85-20.8L406.85-20.8Q406.85-19.3 407.7-18.23 408.55-17.15 409.73-16.48 410.9-15.8 413.3-14.65L413.3-14.65 414.4-14.15Q416.85-13 418.32-12.13 419.8-11.25 420.82-9.85 421.85-8.45 421.85-6.5L421.85-6.5Q421.85-3.55 419.4-1.45 416.95 0.65 411.45 0.65L411.45 0.65ZM446-6.45Q446.75-6.2 446.75-5.3L446.75-5.3Q446.75-4.8 446.45-3.95L446.45-3.95Q445.5-1.75 443.13-0.55 440.75 0.65 437.55 0.65L437.55 0.65Q432.05 0.65 428.95-2.78 425.85-6.2 425.85-12.55L425.85-12.55Q425.85-18.85 428.92-22.45 432-26.05 437.75-26.05L437.75-26.05Q441.9-26.05 444.4-24.18 446.9-22.3 446.9-18.85L446.9-18.85Q446.9-15.15 443.9-13.2 440.9-11.25 435.55-11.25L435.55-11.25Q432.6-11.25 430.15-11.6L430.15-11.6Q430.45-6.55 432.67-4.33 434.9-2.1 438.5-2.1L438.5-2.1Q441.25-2.1 443.25-3.23 445.25-4.35 446-6.45L446-6.45ZM437.6-24.25Q434.2-24.25 432.17-21.43 430.15-18.6 430.1-13.3L430.1-13.3Q432.5-13.1 434-13.05L434-13.05Q438-13.05 440.32-14.48 442.65-15.9 442.65-19.35L442.65-19.35Q442.65-22 441.2-23.13 439.75-24.25 437.6-24.25L437.6-24.25ZM460.4 0.65Q455.75 0.65 453.43-1.03 451.1-2.7 451.1-5.4L451.1-5.4Q451.1-6.65 451.7-7.43 452.3-8.2 453.6-8.2L453.6-8.2Q454.1-8.2 454.4-8.15L454.4-8.15Q454.25-7.55 454.25-6.95L454.25-6.95Q454.25-6.4 454.3-6.05L454.3-6.05Q454.4-3.85 456.13-2.55 457.85-1.25 460.75-1.25L460.75-1.25Q463.6-1.25 465.3-2.25 467-3.25 467-5.2L467-5.2Q467-7 465.7-8.05 464.4-9.1 461.6-10.35L461.6-10.35 460-11.1Q457.2-12.4 455.72-13.3 454.25-14.2 453.18-15.75 452.1-17.3 452.1-19.65L452.1-19.65Q452.1-22.9 454.65-24.5 457.2-26.1 461.1-26.1L461.1-26.1Q465.2-26.1 467.5-24.78 469.8-23.45 469.8-21.1L469.8-21.1Q469.8-19 467.95-18.8L467.95-18.8Q467.45-18.7 467.3-18.7L467.3-18.7Q467-18.7 466.5-18.8L466.5-18.8Q466.6-19.4 466.6-19.8L466.6-19.8Q466.6-20.45 466.45-20.9L466.45-20.9Q466.25-22.55 464.82-23.4 463.4-24.25 460.95-24.25L460.95-24.25Q458.7-24.25 457.25-23.43 455.8-22.6 455.8-20.8L455.8-20.8Q455.8-19.3 456.65-18.23 457.5-17.15 458.68-16.48 459.85-15.8 462.25-14.65L462.25-14.65 463.35-14.15Q465.8-13 467.27-12.13 468.75-11.25 469.77-9.85 470.8-8.45 470.8-6.5L470.8-6.5Q470.8-3.55 468.35-1.45 465.9 0.65 460.4 0.65L460.4 0.65Z" opacity="1" transform="matrix(1,0,0,1,0,0)" fill="black" class="slogan-text-1" id="SvgjsPath1238" stroke-width="7" stroke="black" stroke-linejoin="round"/></svg></g></svg></g></svg></g></svg></g></svg></g></svg></g></svg></g></mask><g transform="matrix(1,0,0,1,150.0015306224396,37.08)"><svg viewBox="0 0 95.51693875512082 173.04" height="173.04" width="95.51693875512082"><g><svg viewBox="0 0 95.51693875512082 173.04" height="173.04" width="95.51693875512082"><g><svg viewBox="0 0 119.53816202593855 216.5572287654524" height="173.04" width="95.51693875512082"><g><svg viewBox="0 0 119.53816202593855 216.5572287654524" height="216.5572287654524" width="119.53816202593855"><g id="textblocktransform"><svg viewBox="0 0 119.53816202593855 216.5572287654524" height="216.5572287654524" width="119.53816202593855" id="textblock"><g><svg viewBox="0 0 119.53816202593855 171.9706128" height="171.9706128" width="119.53816202593855"><g transform="matrix(1,0,0,1,0,0)"><svg width="119.53816202593855" viewBox="-4.15 -40.9 31.549999999999997 44.949999999999996" height="171.9706128" data-palette-color="#096a2e"><path d="M8.5-1.65L-0.15 0.05Q1.35-6.7 2.7-13.15L2.7-13.15Q3.25-15.85 3.85-18.85 4.45-21.85 5-24.75 5.55-27.65 6.05-30.35 6.55-33.05 6.9-35.3L6.9-35.3Q8.35-35.75 9.75-36.08 11.15-36.4 12.63-36.65 14.1-36.9 15.4-36.9L15.4-36.9Q17.65-36.9 19.18-36.15 20.7-35.4 21.65-34.13 22.6-32.85 23-31.15 23.4-29.45 23.4-27.5L23.4-27.5Q23.4-24.7 22.38-22.1 21.35-19.5 19.63-17.48 17.9-15.45 15.68-14.25 13.45-13.05 11.05-13.05L11.05-13.05 10.5-13.05Q10.1-11.35 9.75-9.35 9.4-7.35 9.15-5.65L9.15-5.65Q8.8-3.65 8.5-1.65L8.5-1.65ZM13.8-30.85Q13.25-27.55 12.7-24.6 12.15-21.65 11.5-18.3L11.5-18.3Q12.3-18.5 13.18-19.23 14.05-19.95 14.8-21.13 15.55-22.3 16-23.85 16.45-25.4 16.45-27.1L16.45-27.1Q16.45-28.95 15.63-29.9 14.8-30.85 13.8-30.85L13.8-30.85Z" opacity="1" transform="matrix(1,0,0,1,0,0)" fill="#096a2e" class="wordmark-text-0" data-fill-palette-color="primary" id="text-0"/></svg></g></svg></g><g transform="matrix(1,0,0,1,3.5,206.10260519165928)"><svg viewBox="0 0 112.53816202593855 10.454623573793132" height="10.454623573793132" width="112.53816202593855"><g transform="matrix(1,0,0,1,0,0)"><svg width="112.53816202593855" viewBox="-1.4500000000000002 -40.5 476.25 45.15" height="10.454623573793132" data-palette-color="#096a2e"><path d="M13.75 0.65Q8.2 0.65 5.38-1.43 2.55-3.5 2.55-6.75L2.55-6.75Q2.55-9.65 5.35-9.65L5.35-9.65Q5.9-9.65 6.25-9.6L6.25-9.6Q6-8.85 6.1-7.5L6.1-7.5Q6.25-4.6 8.38-2.9 10.5-1.2 14.15-1.2L14.15-1.2Q17.45-1.2 19.43-2.75 21.4-4.3 21.4-7.3L21.4-7.3Q21.4-9.25 20.53-10.65 19.65-12.05 18.03-13.25 16.4-14.45 13.4-16.1L13.4-16.1Q10-18 8.05-19.43 6.1-20.85 4.95-22.7 3.8-24.55 3.8-27.1L3.8-27.1Q3.8-31.2 6.8-33.25 9.8-35.3 14.4-35.3L14.4-35.3Q18.9-35.3 21.63-33.65 24.35-32 24.35-29.1L24.35-29.1Q24.35-27 22.35-26.8L22.35-26.8Q21.95-26.7 21.7-26.7L21.7-26.7Q21.4-26.7 20.8-26.8L20.8-26.8Q20.95-27.35 20.95-27.8L20.95-27.8Q20.95-28.4 20.8-28.9L20.8-28.9Q20.6-31.05 18.75-32.25 16.9-33.45 14-33.45L14-33.45Q11.35-33.45 9.47-32.25 7.6-31.05 7.6-28.35L7.6-28.35Q7.6-26.45 8.55-25.03 9.5-23.6 11.1-22.5 12.7-21.4 15.65-19.75L15.65-19.75Q18.8-18.05 20.85-16.55 22.9-15.05 24.15-13.05 25.4-11.05 25.4-8.4L25.4-8.4Q25.4-6 24.23-3.95 23.05-1.9 20.45-0.63 17.85 0.65 13.75 0.65L13.75 0.65ZM54.2-3.35Q54.8-2.55 54.8-1.8L54.8-1.8Q54.8-0.75 54-0.13 53.2 0.5 51.8 0.5L51.8 0.5Q47.9 0.5 47.9-4.6L47.9-4.6 47.9-5.6Q46.85-2.65 44.65-1 42.45 0.65 39.5 0.65L39.5 0.65Q35.4 0.65 33.55-1.75 31.7-4.15 31.65-9.85L31.65-9.85 31.65-19.75Q31.65-23.2 31-25.15L31-25.15Q32.1-26.05 33.35-26.05L33.35-26.05Q34.35-26.05 34.98-25.45 35.6-24.85 35.6-23.8L35.6-23.8 35.65-10.35Q35.65-7.1 36.13-5.2 36.6-3.3 37.68-2.43 38.75-1.55 40.65-1.55L40.65-1.55Q42.35-1.55 43.93-2.78 45.5-4 46.53-6.68 47.55-9.35 47.55-13.45L47.55-13.45Q47.55-19.9 47.45-21.85 47.35-23.8 46.85-25.15L46.85-25.15Q47.9-26.05 49.15-26.05L49.15-26.05Q50.15-26.05 50.8-25.4 51.45-24.75 51.45-23.65L51.45-23.65 51.5-5.15Q51.5-3.75 51.83-3.18 52.15-2.6 52.9-2.6L52.9-2.6Q53.8-2.6 54.2-3.35L54.2-3.35ZM80.9-5.7Q81-1.9 81.55-0.35L81.55-0.35Q80.55 0.55 79.25 0.55L79.25 0.55Q78.2 0.55 77.55-0.05 76.9-0.65 76.9-1.65L76.9-1.65 76.9-15.15Q76.85-19.5 75.68-21.6 74.5-23.7 71.7-23.7L71.7-23.7Q69.95-23.7 68.33-22.5 66.7-21.3 65.65-18.7 64.6-16.1 64.6-12.05L64.6-12.05Q64.6-5.6 64.7-3.65 64.8-1.7 65.3-0.35L65.3-0.35Q64.25 0.55 63 0.55L63 0.55Q61.95 0.55 61.3-0.1 60.65-0.75 60.65-1.85L60.65-1.85 60.65-20.3Q60.6-21.7 60.28-22.3 59.95-22.9 59.25-22.9L59.25-22.9Q58.3-22.9 57.95-22.1L57.95-22.1Q57.35-22.95 57.35-23.7L57.35-23.7Q57.35-24.75 58.15-25.38 58.95-26 60.35-26L60.35-26Q62.25-26 63.25-24.7 64.25-23.4 64.25-20.85L64.25-20.85 64.25-19.85Q65.3-22.8 67.55-24.43 69.8-26.05 72.85-26.05L72.85-26.05Q80.9-26.05 80.9-15.65L80.9-15.65 80.9-5.7ZM95.95 0.65Q91.3 0.65 88.97-1.03 86.65-2.7 86.65-5.4L86.65-5.4Q86.65-6.65 87.25-7.43 87.85-8.2 89.15-8.2L89.15-8.2Q89.65-8.2 89.95-8.15L89.95-8.15Q89.8-7.55 89.8-6.95L89.8-6.95Q89.8-6.4 89.85-6.05L89.85-6.05Q89.95-3.85 91.67-2.55 93.4-1.25 96.3-1.25L96.3-1.25Q99.15-1.25 100.85-2.25 102.55-3.25 102.55-5.2L102.55-5.2Q102.55-7 101.25-8.05 99.95-9.1 97.15-10.35L97.15-10.35 95.55-11.1Q92.75-12.4 91.28-13.3 89.8-14.2 88.72-15.75 87.65-17.3 87.65-19.65L87.65-19.65Q87.65-22.9 90.2-24.5 92.75-26.1 96.65-26.1L96.65-26.1Q100.75-26.1 103.05-24.78 105.35-23.45 105.35-21.1L105.35-21.1Q105.35-19 103.5-18.8L103.5-18.8Q103-18.7 102.85-18.7L102.85-18.7Q102.55-18.7 102.05-18.8L102.05-18.8Q102.15-19.4 102.15-19.8L102.15-19.8Q102.15-20.45 102-20.9L102-20.9Q101.8-22.55 100.38-23.4 98.95-24.25 96.5-24.25L96.5-24.25Q94.25-24.25 92.8-23.43 91.35-22.6 91.35-20.8L91.35-20.8Q91.35-19.3 92.2-18.23 93.05-17.15 94.22-16.48 95.4-15.8 97.8-14.65L97.8-14.65 98.9-14.15Q101.35-13 102.83-12.13 104.3-11.25 105.33-9.85 106.35-8.45 106.35-6.5L106.35-6.5Q106.35-3.55 103.9-1.45 101.45 0.65 95.95 0.65L95.95 0.65ZM130.5-6.45Q131.25-6.2 131.25-5.3L131.25-5.3Q131.25-4.8 130.95-3.95L130.95-3.95Q130-1.75 127.63-0.55 125.25 0.65 122.05 0.65L122.05 0.65Q116.55 0.65 113.45-2.78 110.35-6.2 110.35-12.55L110.35-12.55Q110.35-18.85 113.43-22.45 116.5-26.05 122.25-26.05L122.25-26.05Q126.4-26.05 128.9-24.18 131.4-22.3 131.4-18.85L131.4-18.85Q131.4-15.15 128.4-13.2 125.4-11.25 120.05-11.25L120.05-11.25Q117.1-11.25 114.65-11.6L114.65-11.6Q114.95-6.55 117.18-4.33 119.4-2.1 123-2.1L123-2.1Q125.75-2.1 127.75-3.23 129.75-4.35 130.5-6.45L130.5-6.45ZM122.1-24.25Q118.7-24.25 116.68-21.43 114.65-18.6 114.6-13.3L114.6-13.3Q117-13.1 118.5-13.05L118.5-13.05Q122.5-13.05 124.83-14.48 127.15-15.9 127.15-19.35L127.15-19.35Q127.15-22 125.7-23.13 124.25-24.25 122.1-24.25L122.1-24.25ZM144.5-25.35Q145.3-25.35 146.63-25.4 147.95-25.45 148.75-25.5L148.75-25.5 148.7-24.4Q148.65-23.9 148.35-23.58 148.05-23.25 147.6-23.25L147.6-23.25 142.45-23.25 142.45-21.35 142.45-5.25Q142.45-3.95 143.05-3.25 143.65-2.55 144.85-2.55L144.85-2.55Q145.6-2.55 146.28-2.83 146.95-3.1 147.2-3.6L147.2-3.6Q147.75-2.85 147.75-2L147.75-2Q147.75-0.85 146.55-0.15 145.35 0.55 143.5 0.55L143.5 0.55Q141.15 0.55 139.8-0.93 138.45-2.4 138.45-5L138.45-5 138.45-23.25 137.75-23.25Q135.7-23.25 134.75-23.1L134.75-23.1 134.8-24.25Q134.85-25.35 135.9-25.35L135.9-25.35 138.45-25.35 138.45-29.8Q138.45-30.85 139.1-31.43 139.75-32 140.8-32L140.8-32Q142.05-32 143.1-31.1L143.1-31.1Q142.55-29.4 142.5-25.35L142.5-25.35 144.5-25.35ZM161.85 0.65Q157.2 0.65 154.88-1.03 152.55-2.7 152.55-5.4L152.55-5.4Q152.55-6.65 153.15-7.43 153.75-8.2 155.05-8.2L155.05-8.2Q155.55-8.2 155.85-8.15L155.85-8.15Q155.7-7.55 155.7-6.95L155.7-6.95Q155.7-6.4 155.75-6.05L155.75-6.05Q155.85-3.85 157.58-2.55 159.3-1.25 162.2-1.25L162.2-1.25Q165.05-1.25 166.75-2.25 168.45-3.25 168.45-5.2L168.45-5.2Q168.45-7 167.15-8.05 165.85-9.1 163.05-10.35L163.05-10.35 161.45-11.1Q158.65-12.4 157.18-13.3 155.7-14.2 154.63-15.75 153.55-17.3 153.55-19.65L153.55-19.65Q153.55-22.9 156.1-24.5 158.65-26.1 162.55-26.1L162.55-26.1Q166.65-26.1 168.95-24.78 171.25-23.45 171.25-21.1L171.25-21.1Q171.25-19 169.4-18.8L169.4-18.8Q168.9-18.7 168.75-18.7L168.75-18.7Q168.45-18.7 167.95-18.8L167.95-18.8Q168.05-19.4 168.05-19.8L168.05-19.8Q168.05-20.45 167.9-20.9L167.9-20.9Q167.7-22.55 166.28-23.4 164.85-24.25 162.4-24.25L162.4-24.25Q160.15-24.25 158.7-23.43 157.25-22.6 157.25-20.8L157.25-20.8Q157.25-19.3 158.1-18.23 158.95-17.15 160.13-16.48 161.3-15.8 163.7-14.65L163.7-14.65 164.8-14.15Q167.25-13 168.72-12.13 170.2-11.25 171.23-9.85 172.25-8.45 172.25-6.5L172.25-6.5Q172.25-3.55 169.8-1.45 167.35 0.65 161.85 0.65L161.85 0.65ZM211.45-3.65Q212-2.9 212-2.1L212-2.1Q212-1 210.97-0.25 209.95 0.5 208.5 0.5L208.5 0.5Q206.35 0.5 205.25-1 204.15-2.5 204.15-5.7L204.15-5.7 204.15-7.15Q202.5-3.6 199.68-1.53 196.85 0.55 193.5 0.55L193.5 0.55Q190.6 0.55 188.93-1.03 187.25-2.6 187.25-5.25L187.25-5.25Q187.25-8.2 189.5-10.25 191.75-12.3 195.55-13.35L195.55-13.35Q198.9-14.25 202.5-14.25L202.5-14.25Q203.5-14.25 203.95-14.2L203.95-14.2 203.95-15.5Q203.95-19.95 202.47-22.1 201-24.25 197.6-24.25L197.6-24.25Q195.4-24.25 193.9-23.3 192.4-22.35 192.4-20.2L192.4-20.2Q192.4-19.05 192.93-18.05 193.45-17.05 194.55-16.65L194.55-16.65Q193.75-15.65 192.15-15.65L192.15-15.65Q190.5-15.65 189.45-16.98 188.4-18.3 188.4-20.05L188.4-20.05Q188.4-22.95 190.95-24.5 193.5-26.05 197.95-26.05L197.95-26.05Q203.1-26.05 205.55-23.4 208-20.75 208-15.25L208-15.25 208-5.25Q208-2.6 209.8-2.6L209.8-2.6Q210.2-2.6 210.7-2.88 211.2-3.15 211.45-3.65L211.45-3.65ZM195.1-2.25Q197.1-2.25 199.18-3.73 201.25-5.2 202.63-7.6 204-10 204.05-12.6L204.05-12.6 202.9-12.65Q201.15-12.65 199.35-12.38 197.55-12.1 196.3-11.6L196.3-11.6Q194.1-10.8 192.85-9.4 191.6-8 191.6-6.1L191.6-6.1Q191.6-4.45 192.45-3.35 193.3-2.25 195.1-2.25L195.1-2.25ZM237.35-5.7Q237.45-1.9 238-0.35L238-0.35Q237 0.55 235.7 0.55L235.7 0.55Q234.65 0.55 234-0.05 233.35-0.65 233.35-1.65L233.35-1.65 233.35-15.15Q233.3-19.5 232.13-21.6 230.95-23.7 228.15-23.7L228.15-23.7Q226.4-23.7 224.78-22.5 223.15-21.3 222.1-18.7 221.05-16.1 221.05-12.05L221.05-12.05Q221.05-5.6 221.15-3.65 221.25-1.7 221.75-0.35L221.75-0.35Q220.7 0.55 219.45 0.55L219.45 0.55Q218.4 0.55 217.75-0.1 217.1-0.75 217.1-1.85L217.1-1.85 217.1-20.3Q217.05-21.7 216.72-22.3 216.4-22.9 215.7-22.9L215.7-22.9Q214.75-22.9 214.4-22.1L214.4-22.1Q213.8-22.95 213.8-23.7L213.8-23.7Q213.8-24.75 214.6-25.38 215.4-26 216.8-26L216.8-26Q218.7-26 219.7-24.7 220.7-23.4 220.7-20.85L220.7-20.85 220.7-19.85Q221.75-22.8 224-24.43 226.25-26.05 229.3-26.05L229.3-26.05Q237.35-26.05 237.35-15.65L237.35-15.65 237.35-5.7ZM267.6-3.45Q268.15-2.7 268.15-1.85L268.15-1.85Q268.15-0.85 267.27-0.23 266.4 0.4 265.05 0.4L265.05 0.4Q260.95 0.4 260.95-6L260.95-6 260.95-6.35Q259.75-3.05 257.52-1.2 255.3 0.65 252 0.65L252 0.65Q247.2 0.65 245.3-2.9 243.4-6.45 243.4-11.5L243.4-11.5Q243.4-18.4 246.13-22.23 248.85-26.05 253.9-26.05L253.9-26.05Q256.45-26.05 258.22-25.03 260-24 260.8-22.05L260.8-22.05 260.75-28.75Q260.75-33.35 260.1-35.6L260.1-35.6Q261-36.5 262.4-36.5L262.4-36.5Q263.45-36.5 264.1-35.93 264.75-35.35 264.75-34.3L264.75-34.3 264.7-5.25Q264.7-2.7 266.25-2.7L266.25-2.7Q267.2-2.7 267.6-3.45L267.6-3.45ZM253-1.8Q255.4-1.8 257.15-3.6 258.9-5.4 259.8-8.45 260.7-11.5 260.7-15.2L260.7-15.2Q260.7-23.7 254.55-23.7L254.55-23.7Q251.2-23.7 249.42-20.65 247.65-17.6 247.65-11.65L247.65-11.65Q247.65-7.2 248.77-4.5 249.9-1.8 253-1.8L253-1.8ZM294.2 0.65Q288.65 0.65 285.82-1.43 283-3.5 283-6.75L283-6.75Q283-9.65 285.8-9.65L285.8-9.65Q286.35-9.65 286.7-9.6L286.7-9.6Q286.45-8.85 286.55-7.5L286.55-7.5Q286.7-4.6 288.82-2.9 290.95-1.2 294.6-1.2L294.6-1.2Q297.9-1.2 299.88-2.75 301.85-4.3 301.85-7.3L301.85-7.3Q301.85-9.25 300.97-10.65 300.1-12.05 298.47-13.25 296.85-14.45 293.85-16.1L293.85-16.1Q290.45-18 288.5-19.43 286.55-20.85 285.4-22.7 284.25-24.55 284.25-27.1L284.25-27.1Q284.25-31.2 287.25-33.25 290.25-35.3 294.85-35.3L294.85-35.3Q299.35-35.3 302.07-33.65 304.8-32 304.8-29.1L304.8-29.1Q304.8-27 302.8-26.8L302.8-26.8Q302.4-26.7 302.15-26.7L302.15-26.7Q301.85-26.7 301.25-26.8L301.25-26.8Q301.4-27.35 301.4-27.8L301.4-27.8Q301.4-28.4 301.25-28.9L301.25-28.9Q301.05-31.05 299.2-32.25 297.35-33.45 294.45-33.45L294.45-33.45Q291.8-33.45 289.93-32.25 288.05-31.05 288.05-28.35L288.05-28.35Q288.05-26.45 289-25.03 289.95-23.6 291.55-22.5 293.15-21.4 296.1-19.75L296.1-19.75Q299.25-18.05 301.3-16.55 303.35-15.05 304.6-13.05 305.85-11.05 305.85-8.4L305.85-8.4Q305.85-6 304.68-3.95 303.5-1.9 300.9-0.63 298.3 0.65 294.2 0.65L294.2 0.65ZM334.65-3.35Q335.25-2.55 335.25-1.8L335.25-1.8Q335.25-0.75 334.45-0.13 333.65 0.5 332.25 0.5L332.25 0.5Q328.35 0.5 328.35-4.6L328.35-4.6 328.35-5.6Q327.3-2.65 325.1-1 322.9 0.65 319.95 0.65L319.95 0.65Q315.85 0.65 314-1.75 312.15-4.15 312.1-9.85L312.1-9.85 312.1-19.75Q312.1-23.2 311.45-25.15L311.45-25.15Q312.55-26.05 313.8-26.05L313.8-26.05Q314.8-26.05 315.43-25.45 316.05-24.85 316.05-23.8L316.05-23.8 316.1-10.35Q316.1-7.1 316.57-5.2 317.05-3.3 318.13-2.43 319.2-1.55 321.1-1.55L321.1-1.55Q322.8-1.55 324.38-2.78 325.95-4 326.97-6.68 328-9.35 328-13.45L328-13.45Q328-19.9 327.9-21.85 327.8-23.8 327.3-25.15L327.3-25.15Q328.35-26.05 329.6-26.05L329.6-26.05Q330.6-26.05 331.25-25.4 331.9-24.75 331.9-23.65L331.9-23.65 331.95-5.15Q331.95-3.75 332.27-3.18 332.6-2.6 333.35-2.6L333.35-2.6Q334.25-2.6 334.65-3.35L334.65-3.35ZM361.35-5.7Q361.45-1.9 362-0.35L362-0.35Q361 0.55 359.7 0.55L359.7 0.55Q358.65 0.55 358-0.05 357.35-0.65 357.35-1.65L357.35-1.65 357.35-15.15Q357.3-19.5 356.13-21.6 354.95-23.7 352.15-23.7L352.15-23.7Q350.4-23.7 348.77-22.5 347.15-21.3 346.1-18.7 345.05-16.1 345.05-12.05L345.05-12.05Q345.05-5.6 345.15-3.65 345.25-1.7 345.75-0.35L345.75-0.35Q344.7 0.55 343.45 0.55L343.45 0.55Q342.4 0.55 341.75-0.1 341.1-0.75 341.1-1.85L341.1-1.85 341.1-20.3Q341.05-21.7 340.73-22.3 340.4-22.9 339.7-22.9L339.7-22.9Q338.75-22.9 338.4-22.1L338.4-22.1Q337.8-22.95 337.8-23.7L337.8-23.7Q337.8-24.75 338.6-25.38 339.4-26 340.8-26L340.8-26Q342.7-26 343.7-24.7 344.7-23.4 344.7-20.85L344.7-20.85 344.7-19.85Q345.75-22.8 348-24.43 350.25-26.05 353.3-26.05L353.3-26.05Q361.35-26.05 361.35-15.65L361.35-15.65 361.35-5.7ZM380-26.05Q382.6-26.05 384.18-24.68 385.75-23.3 385.75-20.85L385.75-20.85Q385.75-19.2 384.8-18.13 383.85-17.05 382.55-17.05L382.55-17.05Q381.45-17.05 381.05-17.55L381.05-17.55Q381.6-18.4 381.8-19.13 382-19.85 382-20.75L382-20.75Q382-23.85 379.1-23.85L379.1-23.85Q376.85-23.85 375.32-20.98 373.8-18.1 373.8-12.05L373.8-12.05 373.8-9.35Q373.8-4.85 373.9-3.25 374-1.65 374.45-0.45L374.45-0.45Q373.4 0.45 372.1 0.45L372.1 0.45Q371.1 0.45 370.45-0.18 369.8-0.8 369.8-1.9L369.8-1.9 369.8-20.3Q369.8-21.7 369.47-22.3 369.15-22.9 368.4-22.9L368.4-22.9Q367.45-22.9 367.1-22.1L367.1-22.1Q366.5-22.95 366.5-23.7L366.5-23.7Q366.5-24.75 367.3-25.38 368.1-26 369.5-26L369.5-26Q371.45-26 372.43-24.63 373.4-23.25 373.35-20.55L373.35-20.55 373.35-20.3Q374.2-23.15 375.9-24.6 377.6-26.05 380-26.05L380-26.05ZM393.6-30Q392.5-30 391.7-30.8 390.9-31.6 390.9-32.7L390.9-32.7Q390.9-33.85 391.7-34.63 392.5-35.4 393.6-35.4L393.6-35.4Q394.75-35.4 395.52-34.63 396.3-33.85 396.3-32.7L396.3-32.7Q396.3-31.6 395.52-30.8 394.75-30 393.6-30L393.6-30ZM395.8-5.7Q395.8-2.05 396.45-0.35L396.45-0.35Q395.4 0.55 394.15 0.55L394.15 0.55Q393.15 0.55 392.52-0.05 391.9-0.65 391.9-1.65L391.9-1.65 391.85-19.8Q391.85-23.25 391.2-25.15L391.2-25.15Q392.25-26.05 393.5-26.05L393.5-26.05Q394.5-26.05 395.13-25.48 395.75-24.9 395.75-23.85L395.75-23.85 395.8-5.7ZM411.45 0.65Q406.8 0.65 404.48-1.03 402.15-2.7 402.15-5.4L402.15-5.4Q402.15-6.65 402.75-7.43 403.35-8.2 404.65-8.2L404.65-8.2Q405.15-8.2 405.45-8.15L405.45-8.15Q405.3-7.55 405.3-6.95L405.3-6.95Q405.3-6.4 405.35-6.05L405.35-6.05Q405.45-3.85 407.18-2.55 408.9-1.25 411.8-1.25L411.8-1.25Q414.65-1.25 416.35-2.25 418.05-3.25 418.05-5.2L418.05-5.2Q418.05-7 416.75-8.05 415.45-9.1 412.65-10.35L412.65-10.35 411.05-11.1Q408.25-12.4 406.77-13.3 405.3-14.2 404.23-15.75 403.15-17.3 403.15-19.65L403.15-19.65Q403.15-22.9 405.7-24.5 408.25-26.1 412.15-26.1L412.15-26.1Q416.25-26.1 418.55-24.78 420.85-23.45 420.85-21.1L420.85-21.1Q420.85-19 419-18.8L419-18.8Q418.5-18.7 418.35-18.7L418.35-18.7Q418.05-18.7 417.55-18.8L417.55-18.8Q417.65-19.4 417.65-19.8L417.65-19.8Q417.65-20.45 417.5-20.9L417.5-20.9Q417.3-22.55 415.88-23.4 414.45-24.25 412-24.25L412-24.25Q409.75-24.25 408.3-23.43 406.85-22.6 406.85-20.8L406.85-20.8Q406.85-19.3 407.7-18.23 408.55-17.15 409.73-16.48 410.9-15.8 413.3-14.65L413.3-14.65 414.4-14.15Q416.85-13 418.32-12.13 419.8-11.25 420.82-9.85 421.85-8.45 421.85-6.5L421.85-6.5Q421.85-3.55 419.4-1.45 416.95 0.65 411.45 0.65L411.45 0.65ZM446-6.45Q446.75-6.2 446.75-5.3L446.75-5.3Q446.75-4.8 446.45-3.95L446.45-3.95Q445.5-1.75 443.13-0.55 440.75 0.65 437.55 0.65L437.55 0.65Q432.05 0.65 428.95-2.78 425.85-6.2 425.85-12.55L425.85-12.55Q425.85-18.85 428.92-22.45 432-26.05 437.75-26.05L437.75-26.05Q441.9-26.05 444.4-24.18 446.9-22.3 446.9-18.85L446.9-18.85Q446.9-15.15 443.9-13.2 440.9-11.25 435.55-11.25L435.55-11.25Q432.6-11.25 430.15-11.6L430.15-11.6Q430.45-6.55 432.67-4.33 434.9-2.1 438.5-2.1L438.5-2.1Q441.25-2.1 443.25-3.23 445.25-4.35 446-6.45L446-6.45ZM437.6-24.25Q434.2-24.25 432.17-21.43 430.15-18.6 430.1-13.3L430.1-13.3Q432.5-13.1 434-13.05L434-13.05Q438-13.05 440.32-14.48 442.65-15.9 442.65-19.35L442.65-19.35Q442.65-22 441.2-23.13 439.75-24.25 437.6-24.25L437.6-24.25ZM460.4 0.65Q455.75 0.65 453.43-1.03 451.1-2.7 451.1-5.4L451.1-5.4Q451.1-6.65 451.7-7.43 452.3-8.2 453.6-8.2L453.6-8.2Q454.1-8.2 454.4-8.15L454.4-8.15Q454.25-7.55 454.25-6.95L454.25-6.95Q454.25-6.4 454.3-6.05L454.3-6.05Q454.4-3.85 456.13-2.55 457.85-1.25 460.75-1.25L460.75-1.25Q463.6-1.25 465.3-2.25 467-3.25 467-5.2L467-5.2Q467-7 465.7-8.05 464.4-9.1 461.6-10.35L461.6-10.35 460-11.1Q457.2-12.4 455.72-13.3 454.25-14.2 453.18-15.75 452.1-17.3 452.1-19.65L452.1-19.65Q452.1-22.9 454.65-24.5 457.2-26.1 461.1-26.1L461.1-26.1Q465.2-26.1 467.5-24.78 469.8-23.45 469.8-21.1L469.8-21.1Q469.8-19 467.95-18.8L467.95-18.8Q467.45-18.7 467.3-18.7L467.3-18.7Q467-18.7 466.5-18.8L466.5-18.8Q466.6-19.4 466.6-19.8L466.6-19.8Q466.6-20.45 466.45-20.9L466.45-20.9Q466.25-22.55 464.82-23.4 463.4-24.25 460.95-24.25L460.95-24.25Q458.7-24.25 457.25-23.43 455.8-22.6 455.8-20.8L455.8-20.8Q455.8-19.3 456.65-18.23 457.5-17.15 458.68-16.48 459.85-15.8 462.25-14.65L462.25-14.65 463.35-14.15Q465.8-13 467.27-12.13 468.75-11.25 469.77-9.85 470.8-8.45 470.8-6.5L470.8-6.5Q470.8-3.55 468.35-1.45 465.9 0.65 460.4 0.65L460.4 0.65Z" opacity="1" transform="matrix(1,0,0,1,0,0)" fill="#096a2e" class="slogan-text-1" data-fill-palette-color="secondary" id="text-1"/></svg></g></svg></g></svg></g></svg></g></svg></g></svg></g></svg></g><g mask="url(#0544561a-b46d-4424-87df-5a2a48ef5f26)"><g transform="matrix(2.7244444444444444, 0, 0, 2.7244444444444444, 116.5951995113175, 1)"><svg xmlns="http://www.w3.org/2000/svg" xmlns:xlink="http://www.w3.org/1999/xlink" version="1.1" x="0" y="0" viewBox="24.761855407245655 5 59.58264309935908 90" enable-background="new 0 0 100 100" xml:space="preserve" width="59.58264309935908" height="90" class="icon-none" data-fill-palette-color="accent" id="none"><g fill="#c9efc7" data-fill-palette-color="accent"><path d="M73.76 35.603C86.875 48 91.5 66.25 65.633 82.379c3.64-4.928 5.654-9.794 6.096-14.669 0.951-10.516-5.606-19.072-12.835-26.752C48.298 29.7 47.51 18.84 56.413 6.782 54.578 22.641 64.6 26.944 73.76 35.603zM45.288 93.716c6.184-13.053 7.276-20.302-8.197-34.939-4.204-3.977-7.451-8.029-9.71-12.086-2.881 6.435-5.164 20.081 3.244 27.935C36.312 79.938 44.125 83.125 45.288 93.716zM56.709 43.014C48.183 33.954 41.999 21.253 54 5 21.497 17.692 19.625 38.125 39.151 56.597 55.603 72.158 54.75 80.75 48 95 79.875 71.5 68.709 55.764 56.709 43.014z" fill="#c9efc7" data-fill-palette-color="accent"/></g></svg></g></g></svg></g><defs/></svg><rect width="395.52" height="247.2" fill="none" stroke="none" visibility="hidden"/></g></svg></g></svg>